# File created by Blade
# Date/Time:  Tue Apr 07 20:29:34 2015
# Frame Rate: 120.000 fps
#------------------------------------------------------
:FULLY-SPECIFIED
:DEGREES
2410
root 4.047942 33.230168 -4.929919 10.617519 -28.016441 -21.252004
Spine 5.147870 12.981354 14.779752
Head 15.571884 -6.529739 6.505859
LeftShoulder -21.614264 42.126852 14.919269
LeftArm 56.612403 -47.241433 -68.161401
LeftForeArm 16.571274 -0.000000 43.136581
LeftHand 9.435846 -0.000000 -0.493804
LeftHandThumb1 -26.253704 0.000000 33.147579
RightShoulder 0.179217 6.333311 -19.412312
RightArm 28.043617 -16.491761 65.512020
RightForeArm -10.536119 -0.000000 25.009561
RightHand 1.451751 -0.000000 15.866576
RightHandThumb1 -24.326973 -0.000000 -32.862282
LeftUpLeg -7.324761 17.381124 9.281325
LeftLeg 13.190405 -0.000000 -0.000000
LeftFoot -16.619655 20.475314 -14.893389
LeftToeBase -3.903276 -0.000000 0.000000
RightUpLeg -88.790280 -47.815030 4.463309
RightLeg 87.767989 -0.000000 -0.000000
RightFoot 38.048526 -25.115390 7.089674
RightToeBase 33.282526 -0.000000 -0.000000
2411
root 4.039331 33.230156 -4.901645 10.607320 -28.147913 -21.290633
Spine 5.168356 13.172815 14.730840
Head 15.528326 -6.618719 6.487770
LeftShoulder -21.712852 42.097589 14.819737
LeftArm 56.539448 -47.216720 -68.612793
LeftForeArm 16.378094 -0.000000 42.263636
LeftHand 9.289393 -0.000000 -0.529959
LeftHandThumb1 -26.253704 0.000000 33.147579
RightShoulder 0.223545 6.366217 -19.375452
RightArm 27.990938 -16.351186 65.475994
RightForeArm -10.386217 -0.000000 24.846763
RightHand 1.357324 -0.000000 15.897382
RightHandThumb1 -24.326973 -0.000000 -32.862282
LeftUpLeg -7.271861 17.486581 9.335844
LeftLeg 13.371658 -0.000000 -0.000000
LeftFoot -17.055595 20.260426 -15.559392
LeftToeBase -3.189180 -0.000000 0.000000
RightUpLeg -88.860870 -48.185714 4.490485
RightLeg 87.909860 -0.000000 -0.000000
RightFoot 38.023958 -25.157511 7.128972
RightToeBase 33.308558 -0.000000 -0.000000
2412
root 4.029746 33.230401 -4.873452 10.641005 -28.311954 -21.366164
Spine 5.159106 13.410142 14.700093
Head 15.500566 -6.718947 6.495264
LeftShoulder -21.853116 42.163727 14.699143
LeftArm 56.610934 -47.182956 -69.166146
LeftForeArm 16.226243 -0.000000 41.377887
LeftHand 9.276396 -0.000000 -0.527331
LeftHandThumb1 -26.253704 0.000000 33.147579
RightShoulder 0.303938 6.370158 -19.343764
RightArm 27.847965 -16.160167 65.465577
RightForeArm -10.294010 0.000000 24.835619
RightHand 1.563162 -0.000000 15.765883
RightHandThumb1 -24.326973 -0.000000 -32.862282
LeftUpLeg -7.254489 17.636123 9.421172
LeftLeg 13.593769 -0.000000 -0.000000
LeftFoot -17.489608 20.013485 -16.201783
LeftToeBase -2.503149 -0.000000 0.000000
RightUpLeg -89.025969 -48.487392 4.653837
RightLeg 88.016625 -0.000000 -0.000000
RightFoot 37.983992 -25.635306 7.340246
RightToeBase 33.296829 -0.000000 -0.000000
2413
root 4.017420 33.231402 -4.846451 10.654022 -28.448663 -21.441965
Spine 5.172243 13.623962 14.677851
Head 15.471356 -6.812816 6.465571
LeftShoulder -22.027424 42.224049 14.532147
LeftArm 56.678012 -47.117588 -69.589233
LeftForeArm 16.014717 -0.000000 40.445522
LeftHand 9.267140 -0.000000 -0.437027
LeftHandThumb1 -26.253704 0.000000 33.147579
RightShoulder 0.362440 6.361072 -19.322973
RightArm 27.727065 -15.970206 65.476043
RightForeArm -10.335417 0.000000 24.838101
RightHand 1.924403 0.000000 16.221693
RightHandThumb1 -24.326973 -0.000000 -32.862282
LeftUpLeg -7.231075 17.757604 9.520866
LeftLeg 13.826791 -0.000000 -0.000000
LeftFoot -17.824071 19.765097 -16.758173
LeftToeBase -2.047590 -0.000000 0.000000
RightUpLeg -89.084829 -48.805138 4.721697
RightLeg 88.194161 -0.000000 -0.000000
RightFoot 37.818259 -25.652541 7.428413
RightToeBase 33.277378 -0.000000 -0.000000
